<svg width="18" height="18" viewBox="0 0 18 18" fill="none" xmlns="http://www.w3.org/2000/svg">
<path fill-rule="evenodd" clip-rule="evenodd" d="M9.00075 0C6.5565 0 6.24975 0.0106875 5.28975 0.054375C4.33162 0.09825 3.67763 0.249937 3.10538 0.4725C2.51344 0.702375 2.01131 1.00988 1.51106 1.51031C1.01044 2.01056 0.702938 2.51269 0.472313 3.10444C0.249188 3.67688 0.0973125 4.33106 0.0541875 5.28881C0.01125 6.24881 0 6.55575 0 9C0 11.4443 0.010875 11.7501 0.054375 12.7101C0.0984375 13.6682 0.250125 14.3222 0.4725 14.8944C0.702563 15.4864 1.01006 15.9885 1.5105 16.4888C2.01056 16.9894 2.51269 17.2976 3.10425 17.5275C3.67688 17.7501 4.33106 17.9018 5.289 17.9456C6.249 17.9893 6.55556 18 8.99963 18C11.4441 18 11.7499 17.9893 12.7099 17.9456C13.668 17.9018 14.3228 17.7501 14.8954 17.5275C15.4871 17.2976 15.9885 16.9894 16.4886 16.4888C16.9892 15.9885 17.2967 15.4864 17.5273 14.8946C17.7486 14.3222 17.9004 13.668 17.9454 12.7102C17.9886 11.7502 17.9998 11.4443 17.9998 9C17.9998 6.55575 17.9886 6.249 17.9454 5.289C17.9004 4.33087 17.7486 3.67688 17.5273 3.10463C17.2967 2.51269 16.9892 2.01056 16.4886 1.51031C15.9879 1.00969 15.4873 0.702188 14.8948 0.4725C14.3211 0.249937 13.6667 0.09825 12.7086 0.054375C11.7486 0.0106875 11.4429 0 8.99794 0H9.00075ZM8.19338 1.62188C8.433 1.6215 8.70038 1.62188 9.00075 1.62188C11.4038 1.62188 11.6886 1.6305 12.6375 1.67363C13.515 1.71375 13.9913 1.86038 14.3085 1.98356C14.7285 2.14669 15.0279 2.34169 15.3428 2.65669C15.6578 2.97169 15.8528 3.27169 16.0163 3.69169C16.1394 4.00856 16.2863 4.48481 16.3262 5.36231C16.3693 6.31106 16.3787 6.59606 16.3787 8.99794C16.3787 11.3998 16.3693 11.6848 16.3262 12.6336C16.2861 13.5111 16.1394 13.9873 16.0163 14.3042C15.8531 14.7242 15.6578 15.0233 15.3428 15.3381C15.0278 15.6531 14.7287 15.8481 14.3085 16.0112C13.9916 16.1349 13.515 16.2812 12.6375 16.3213C11.6888 16.3644 11.4038 16.3738 9.00075 16.3738C6.59757 16.3738 6.31275 16.3644 5.364 16.3213C4.4865 16.2808 4.01025 16.1342 3.69282 16.011C3.27282 15.8479 2.97282 15.6529 2.65782 15.3379C2.34282 15.0229 2.14782 14.7236 1.98432 14.3034C1.86113 13.9866 1.71432 13.5103 1.67438 12.6328C1.63125 11.6841 1.62263 11.3991 1.62263 8.99569C1.62263 6.59231 1.63125 6.30881 1.67438 5.36006C1.7145 4.48256 1.86113 4.00631 1.98432 3.68906C2.14744 3.26906 2.34282 2.96906 2.65782 2.65406C2.97282 2.33906 3.27282 2.14406 3.69282 1.98056C4.01007 1.85681 4.4865 1.71056 5.364 1.67025C6.19425 1.63275 6.516 1.6215 8.19338 1.61963V1.62188ZM13.8049 3.11625C13.2086 3.11625 12.7249 3.59944 12.7249 4.19588C12.7249 4.79213 13.2086 5.27588 13.8049 5.27588C14.4011 5.27588 14.8849 4.79213 14.8849 4.19588C14.8849 3.59963 14.4011 3.11588 13.8049 3.11588V3.11625ZM9.00074 4.37813C6.4483 4.37813 4.37886 6.44756 4.37886 9C4.37886 11.5524 6.4483 13.6209 9.00074 13.6209C11.5532 13.6209 13.6219 11.5524 13.6219 9C13.6219 6.44756 11.553 4.37813 9.00055 4.37813H9.00074ZM9.00074 6C10.6575 6 12.0007 7.34306 12.0007 9C12.0007 10.6568 10.6575 12 9.00074 12C7.3438 12 6.00074 10.6568 6.00074 9C6.00074 7.34306 7.3438 6 9.00074 6Z" fill="currentColor"/>
</svg>
