<svg width="301" height="42" viewBox="0 0 301 42" fill="none" xmlns="http://www.w3.org/2000/svg">
<path d="M16.6458 5C18.6458 6.96 19.8058 9.4 19.8058 11.72V21.92L9.76578 5L0.525778 5C2.36578 7.16 3.44578 9.64 3.44578 11.72L3.44578 26.28C3.44578 28.36 2.36578 30.84 0.525778 33H7.84578C5.84578 31.04 4.68578 28.6 4.68578 26.28L4.68578 11.36L17.5258 33H21.0458L21.0458 11.72C21.0458 9.64 22.1258 7.16 23.9658 5L16.6458 5ZM35.4345 10.2C29.4745 10.2 25.1945 15.64 25.1945 23.24C25.1945 29.72 28.9145 33.8 34.7945 33.8C38.2345 33.8 41.1545 31.76 42.3945 28.48L42.2745 28.36C40.7545 29.08 39.3145 29.48 38.0345 29.48C34.9145 29.48 33.1145 27.04 32.8345 22.56H43.1545C43.6345 14.68 40.8345 10.2 35.4345 10.2ZM32.7945 21.32C32.7945 14.04 33.4345 11.2 35.0745 11.2C36.3545 11.2 36.6345 13.84 36.0345 21.44L32.7945 21.6V21.32ZM50.0186 8.72C52.8186 8.72 54.7386 6.8 54.7386 4C54.7386 1.64 53.2186 0.199998 50.8186 0.199998C48.0186 0.199998 46.0986 2.12 46.0986 4.92C46.0986 7.28 47.6186 8.72 50.0186 8.72ZM45.2586 33H55.5786C54.6186 31.64 54.0186 29.16 54.0186 26.28L54.0186 10.2C52.0986 10.92 47.4186 11.84 45.2586 11.96C46.2586 13.64 46.8186 16.12 46.8186 18.68L46.8186 26.28C46.8186 29.16 46.2186 31.64 45.2586 33ZM79.0142 10.44V4.32C78.5742 4.24 78.1742 4.2 77.7742 4.2C74.0942 4.2 72.4942 5.84 71.5742 10.6C70.3742 10.36 69.0142 10.2 67.4942 10.2C61.8542 10.2 57.8942 13.44 57.8942 18.04C57.8942 20.84 59.4542 22.8 62.3342 23.8C59.5742 25.32 57.8942 27.6 57.8942 29.96C57.8942 32.2 59.1742 33.68 61.6142 34.32C58.8942 35.04 57.5742 36.16 57.5742 37.8C57.5742 40.48 59.8542 41.8 64.5742 41.8C72.8142 41.8 79.0142 37.8 79.0142 32.48C79.0142 29.12 77.0542 27.72 72.4142 27.72H65.0142C63.2542 27.72 62.2942 27.04 62.2942 25.8C62.2942 25.28 62.5742 24.68 63.1342 24.04C64.3742 24.36 65.8542 24.52 67.4942 24.52C73.1342 24.52 77.0942 21.28 77.0942 16.68C77.0942 13.76 75.4142 11.76 72.2542 10.8C73.3742 10.04 74.4542 9.72 75.6142 9.72C76.4542 9.72 77.5342 9.96 79.0142 10.44ZM67.4942 23.52C66.2942 23.52 65.5742 21.24 65.5742 17.36C65.5742 13.48 66.2942 11.2 67.4942 11.2C68.5742 11.2 69.4142 13.88 69.4142 17.36C69.4142 21.24 68.6942 23.52 67.4942 23.52ZM71.0942 34.64C73.3742 34.64 74.0142 35 74.0142 36.36C74.0142 38.64 71.5342 40.28 68.0542 40.28C64.6542 40.28 62.2942 38.68 62.2942 36.4C62.2942 35.52 62.4542 35 62.8542 34.56C63.3742 34.6 63.9742 34.64 64.5742 34.64L71.0942 34.64ZM100.887 26.28V18.12C100.887 12.6 99.287 10.2 95.607 10.2C93.127 10.2 90.767 11.56 89.167 13.84H88.847L89.567 0.199998C87.727 0.919998 83.087 1.84 80.807 1.96C81.807 3.52 82.367 5.96 82.367 8.68V26.28C82.367 29.16 81.767 31.64 80.807 33H91.127C90.167 31.64 89.567 29.16 89.567 26.28V18.92C89.567 15.12 90.727 12.56 92.407 12.56C93.327 12.56 93.687 13.12 93.687 14.64V26.28C93.687 29.16 93.087 31.64 92.127 33H102.447C101.487 31.64 100.887 29.16 100.887 26.28ZM118.654 10.2C116.534 10.2 114.414 11.6 112.894 13.84H112.574L113.294 0.199998C111.414 0.879999 106.774 1.84 104.534 1.96C105.534 3.6 106.094 6.08 106.094 8.68V31.04C110.054 33.04 112.734 33.8 115.574 33.8C121.614 33.8 125.454 28.88 125.454 21.16C125.454 13.72 123.254 10.2 118.654 10.2ZM115.574 32.8C114.814 32.8 114.014 32.28 113.294 31.32V18.92C113.294 14.88 114.254 12.56 115.934 12.56C117.414 12.56 117.854 14.68 117.854 22C117.854 29.72 117.174 32.8 115.574 32.8ZM137.525 33.8C143.525 33.8 147.605 28.68 147.605 21.16C147.605 14.32 143.845 10.2 137.525 10.2C131.525 10.2 127.445 15.32 127.445 22.84C127.445 29.68 131.205 33.8 137.525 33.8ZM137.525 32.8C135.845 32.8 135.045 29.32 135.045 22C135.045 14.68 135.845 11.2 137.525 11.2C139.205 11.2 140.005 14.68 140.005 22C140.005 29.32 139.205 32.8 137.525 32.8ZM171.533 32.04C170.533 30.44 169.973 28 169.973 25.32V10.2C168.213 10.92 163.573 11.84 161.213 11.96C162.213 13.52 162.773 15.96 162.773 18.68V25.08C162.773 29 161.693 31.44 159.973 31.44C158.933 31.44 158.453 30.72 158.453 29.16V10.2C156.693 10.92 152.053 11.84 149.693 11.96C150.693 13.52 151.253 15.96 151.253 18.68V25.88C151.253 31.6 152.853 33.8 156.933 33.8C159.413 33.8 161.653 32.48 163.213 30.16H163.493V33.6C164.973 32.92 168.973 32.16 171.533 32.04ZM187.575 10.2C185.255 10.2 183.535 11.32 182.135 13.84H181.815L182.695 10.2C180.775 10.92 176.135 11.84 173.935 11.96C174.935 13.52 175.495 16 175.495 18.68V26.28C175.495 29.16 174.895 31.64 173.935 33H185.055C183.575 30.88 182.695 28.4 182.695 26.28V18.92C182.695 14.88 183.415 12.56 184.695 12.56C185.455 12.56 185.615 13.28 185.615 16.88C185.615 19.64 186.535 20.8 188.735 20.8C190.895 20.8 192.575 19.04 192.575 16.72C192.575 12.84 190.535 10.2 187.575 10.2ZM215.23 10.44V4.32C214.79 4.24 214.39 4.2 213.99 4.2C210.31 4.2 208.71 5.84 207.79 10.6C206.59 10.36 205.23 10.2 203.71 10.2C198.07 10.2 194.11 13.44 194.11 18.04C194.11 20.84 195.67 22.8 198.55 23.8C195.79 25.32 194.11 27.6 194.11 29.96C194.11 32.2 195.39 33.68 197.83 34.32C195.11 35.04 193.79 36.16 193.79 37.8C193.79 40.48 196.07 41.8 200.79 41.8C209.03 41.8 215.23 37.8 215.23 32.48C215.23 29.12 213.27 27.72 208.63 27.72H201.23C199.47 27.72 198.51 27.04 198.51 25.8C198.51 25.28 198.79 24.68 199.35 24.04C200.59 24.36 202.07 24.52 203.71 24.52C209.35 24.52 213.31 21.28 213.31 16.68C213.31 13.76 211.63 11.76 208.47 10.8C209.59 10.04 210.67 9.72 211.83 9.72C212.67 9.72 213.75 9.96 215.23 10.44ZM203.71 23.52C202.51 23.52 201.79 21.24 201.79 17.36C201.79 13.48 202.51 11.2 203.71 11.2C204.79 11.2 205.63 13.88 205.63 17.36C205.63 21.24 204.91 23.52 203.71 23.52ZM207.31 34.64C209.59 34.64 210.23 35 210.23 36.36C210.23 38.64 207.75 40.28 204.27 40.28C200.87 40.28 198.51 38.68 198.51 36.4C198.51 35.52 198.67 35 199.07 34.56C199.59 34.6 200.19 34.64 200.79 34.64H207.31ZM226.121 33.8C232.121 33.8 236.201 28.68 236.201 21.16C236.201 14.32 232.441 10.2 226.121 10.2C220.121 10.2 216.041 15.32 216.041 22.84C216.041 29.68 219.801 33.8 226.121 33.8ZM226.121 32.8C224.441 32.8 223.641 29.32 223.641 22C223.641 14.68 224.441 11.2 226.121 11.2C227.801 11.2 228.601 14.68 228.601 22C228.601 29.32 227.801 32.8 226.121 32.8ZM248.29 33.8C254.29 33.8 258.37 28.68 258.37 21.16C258.37 14.32 254.61 10.2 248.29 10.2C242.29 10.2 238.21 15.32 238.21 22.84C238.21 29.68 241.97 33.8 248.29 33.8ZM248.29 32.8C246.61 32.8 245.81 29.32 245.81 22C245.81 14.68 246.61 11.2 248.29 11.2C249.97 11.2 250.77 14.68 250.77 22C250.77 29.32 249.97 32.8 248.29 32.8ZM281.299 32.04C280.339 30.32 279.739 27.8 279.739 25.32V0.199998C278.019 0.839999 273.379 1.84 270.979 1.96C272.539 4.64 272.539 7.64 272.539 8.68V10.36C271.779 10.24 271.019 10.2 270.259 10.2C264.219 10.2 260.379 15.12 260.379 22.84C260.379 30.28 262.579 33.8 267.179 33.8C269.299 33.8 271.419 32.4 272.939 30.16H273.259V33.6C275.059 32.92 278.979 32.16 281.299 32.04ZM269.899 31.44C268.419 31.44 267.979 29.28 267.979 22C267.979 14.4 268.659 11.2 270.259 11.2C271.019 11.2 271.819 11.72 272.539 12.68V25.08C272.539 29.12 271.579 31.44 269.899 31.44ZM290.965 33.8C296.365 33.8 300.085 30.92 300.085 26.76C300.085 23.32 298.485 21.32 293.005 17.96C290.765 16.56 289.725 15.2 289.725 13.6C289.725 12.16 290.605 11.2 291.925 11.2C293.725 11.2 295.125 12.76 297.965 17.96H298.365L298.005 11.16C296.485 10.52 294.445 10.2 292.165 10.2C286.925 10.2 283.565 12.84 283.565 16.96C283.565 19.92 285.005 21.96 288.645 24.2C292.405 26.52 293.405 27.76 293.405 30.04C293.405 31.64 292.365 32.8 290.965 32.8C289.085 32.8 287.525 30.96 283.965 24.6H283.565L284.005 32.8C287.085 33.52 289.125 33.8 290.965 33.8Z" fill="currentColor"/>
</svg>
