<svg viewBox="0 0 106 42" fill="none" xmlns="http://www.w3.org/2000/svg">
  <path d="M18 1L1 17.9458V41h34V17.9458L18 1zM69 18v23h36V18M35 30c0-9.3888 7.6112-17 17-17v0c9.3888 0 17 7.6112 17 17v11H35V30zM22 5l63 .00001" stroke="currentColor"/>
  <path d="M13 30c0-2.7614 2.2386-5 5-5v0c2.7614 0 5 2.2386 5 5v11H13V30zM75 17c0 1.6569-1.3431 3-3 3s-3-1.3431-3-3M81 17c0 1.6569-1.3431 3-3 3s-3-1.3431-3-3M87 17c0 1.6569-1.3431 3-3 3s-3-1.3431-3-3M93 17c0 1.6569-1.3431 3-3 3s-3-1.3431-3-3M99 17c0 1.6569-1.3431 3-3 3s-3-1.3431-3-3M105 17c0 1.6569-1.343 3-3 3s-3-1.3431-3-3M75 17V5M81 17V5M87 17V5M93 17V5M99 17V5" stroke="currentColor"/>
  <path d="M69 18V5h36v13M69 16h36" stroke="currentColor"/>
  <path fill-rule="evenodd" clip-rule="evenodd" d="M52.0712 25.7139c-1.3018-1.3017-3.4123-1.3017-4.7141 0-1.3017 1.3017-1.3017 3.4123 0 4.714l-.0001.0001 4.714 4.7141 4.6976-4.6976c.0055-.0054.0111-.011.0166-.0165 1.3018-1.3018 1.3018-3.4123 0-4.7141-1.3017-1.3017-3.4122-1.3017-4.714 0z" fill="currentColor"/>
  <path d="M69 25h18v12H69V25zM92 25h8v16h-8V25z" stroke="currentColor"/>
</svg>