<svg viewBox="0 0 8 14" fill="none" xmlns="http://www.w3.org/2000/svg">
  <path d="M2.15034 10.0753l-.07289-3.14364h.56492c.68033 0 1.31207-.07159 1.89522-.21478.59529-.14319 1.07517-.42306 1.43963-.83961.36447-.41655.5467-1.04138.5467-1.87448 0-.80707-.2369-1.44491-.71071-1.91353-.46165-.46862-1.07517-.70293-1.84054-.70293-.77753 0-1.39105.2278-1.84055.68341-.44951.4556-.67426 1.06741-.67426 1.83542H0c0-.78103.164009-1.46443.492027-2.05021C.832194 1.26918 1.29992.813574 1.89522.488145 2.49051.162715 3.18299 0 3.97267 0c.78967 0 1.48823.162715 2.09567.488145.60744.325429 1.08124.787535 1.42141 1.386335C7.82992 2.47327 8 3.1827 8 4.00279c0 .96327-.19438 1.7443-.58314 2.3431-.37662.59879-.90509 1.03486-1.58542 1.30822-.66819.27337-1.43357.41005-2.29613.41005l-.05467 2.01114h-1.3303zM2.80638 14c-.30372 0-.55885-.1041-.76538-.3124-.19438-.2213-.29157-.4882-.29157-.8006 0-.3124.09719-.5727.29157-.781.20653-.2213.46166-.3319.76538-.3319.30372 0 .55277.1106.74715.3319.19438.2083.29157.4686.29157.781s-.09719.5793-.29157.8006c-.19438.2083-.44343.3124-.74715.3124z" fill="currentColor"/>
</svg>